<svg version="1.1" xmlns="http://www.w3.org/2000/svg" xmlns:xlink="http://www.w3.org/1999/xlink" width="1608" height="455" viewBox="0 0 1608 455"><defs/><g transform="matrix(1,0,0,1,0,0)"><g><g><g><path fill="none" stroke="#d3d3d3" paint-order="fill stroke markers" d=" M 0 0 L 1200 0" stroke-miterlimit="10" stroke-opacity="0.8" stroke-dasharray="5"/></g><g><path fill="none" stroke="#d3d3d3" paint-order="fill stroke markers" d=" M 0 0 L 0 800" stroke-miterlimit="10" stroke-opacity="0.8" stroke-dasharray="5"/></g></g><g id="_8EFD3363-6801-4E8E-89F7-A512C19D36EB" bpmn2nodeid="_8EFD3363-6801-4E8E-89F7-A512C19D36EB" transform="matrix(1,0,0,1,706,151.5)"><g><path fill="none" stroke="none"/></g><g transform="matrix(1,0,0,1,0,0)"><path fill="#ffffff" stroke="black" id="_8EFD3363-6801-4E8E-89F7-A512C19D36EB?shapeType=BACKGROUND" paint-order="fill stroke markers" d=" M 2 0 L 542 0 L 542 0 A 2 2 0 0 1 544 2 L 544 251 L 544 251 A 2 2 0 0 1 542 253 L 2 253 L 2 253 A 2 2 0 0 1 0 251 L 0 2 L 0 2.0000000000000004 A 2 2 0 0 1 1.9999999999999996 0 Z" stroke-miterlimit="10" stroke-dasharray=""/></g><g transform="matrix(1,0,0,1,0,0)"><path fill="none" stroke="#393f44" id="_8EFD3363-6801-4E8E-89F7-A512C19D36EB?shapeType=BORDER&amp;renderType=STROKE" paint-order="fill stroke markers" d=" M 2 0 L 542 0 L 542 0 A 2 2 0 0 1 544 2 L 544 251 L 544 251 A 2 2 0 0 1 542 253 L 2 253 L 2 253 A 2 2 0 0 1 0 251 L 0 2 L 0 2.0000000000000004 A 2 2 0 0 1 1.9999999999999996 0 Z" stroke-miterlimit="10" stroke-width="1.5" stroke-dasharray=""/></g><g transform="matrix(1,0,0,1,190.484375,0)"><text fill="#000000" stroke="none" font-family="Open Sans" font-size="12pt" font-style="normal" font-weight="normal" text-decoration="normal" x="81.515625" y="12" text-anchor="middle" dominant-baseline="alphabetic">Validation subprocess</text></g><g id="_8730E34C-84D0-4BF5-9047-572C0AFB7BEB" bpmn2nodeid="_8730E34C-84D0-4BF5-9047-572C0AFB7BEB" transform="matrix(1,0,0,1,31,98.5)"><g><path fill="none" stroke="none"/></g><g transform="matrix(0.125,0,0,0.125,0,0)"><g transform="matrix(1,0,0,1,0,0)"><path fill="#e8fae6" stroke="black" id="_8730E34C-84D0-4BF5-9047-572C0AFB7BEB?shapeType=BACKGROUND" paint-order="fill stroke markers" d=" M 0 0 M 444 224 C 444 263.9 434.2 300.8 414.4 334.5 C 394.7 368.2 368 394.9 334.4 414.5 C 300.79999999999995 434.1 263.9 444 224 444 C 184.10000000000002 444 147.2 434.2 113.5 414.4 C 79.8 394.7 53.1 368 33.5 334.4 C 13.899999999999999 300.79999999999995 4 263.9 4 224 C 4 184.10000000000002 13.8 147.2 33.6 113.5 C 53.400000000000006 79.80000000000001 80.1 53.1 113.6 33.5 C 147.1 13.899999999999999 184.1 4 224 4 C 263.9 4 300.8 13.8 334.5 33.6 C 368.2 53.400000000000006 394.9 80.1 414.5 113.6 C 434.1 147.1 444 184.1 444 224 Z" stroke-miterlimit="10" stroke-dasharray=""/></g><g><g transform="matrix(1,0,0,1,0,0)"><g transform="matrix(1,0,0,1,0,0)"><path fill="#4aa241" stroke="black" id="_8730E34C-84D0-4BF5-9047-572C0AFB7BEB?shapeType=BORDER&amp;renderType=FILL" paint-order="fill stroke markers" d=" M 0 0 M 224 0 C 100.3 0 0 100.3 0 224 C 0 347.7 100.3 448 224 448 C 347.7 448 448 347.7 448 224 C 448 100.30000000000001 347.7 0 224 0 Z M 0 0 M 224 432 C 109.1 432 16 338.9 16 224 C 16 109.10000000000002 109.1 16 224 16 C 338.9 16 432 109.1 432 224 C 432 338.9 338.9 432 224 432 Z" stroke-miterlimit="10" stroke-dasharray=""/></g></g></g></g><g transform="matrix(1,0,0,1,28,61)"/></g><g id="_3069C4BA-114A-4A9B-A39A-60916467AB47" bpmn2nodeid="_3069C4BA-114A-4A9B-A39A-60916467AB47" transform="matrix(1,0,0,1,167,75.5)"><g><path fill="none" stroke="none"/></g><g transform="matrix(1,0,0,1,0,0)"><path fill="#ffffff" stroke="none" id="_3069C4BA-114A-4A9B-A39A-60916467AB47?shapeType=BACKGROUND" paint-order="stroke fill markers" d=" M 2 0 L 152 0 L 152 0 A 2 2 0 0 1 154 2 L 154 100 L 154 100 A 2 2 0 0 1 152 102 L 2 102 L 2 102 A 2 2 0 0 1 0 100 L 0 2 L 0 2.0000000000000004 A 2 2 0 0 1 1.9999999999999996 0 Z"/></g><g transform="matrix(1,0,0,1,0,0)"><path fill="none" stroke="#000000" id="_3069C4BA-114A-4A9B-A39A-60916467AB47?shapeType=BORDER&amp;renderType=STROKE" paint-order="fill stroke markers" d=" M 2 0 L 152 0 L 152 0 A 2 2 0 0 1 154 2 L 154 100 L 154 100 A 2 2 0 0 1 152 102 L 2 102 L 2 102 A 2 2 0 0 1 0 100 L 0 2 L 0 2.0000000000000004 A 2 2 0 0 1 1.9999999999999996 0 Z" stroke-miterlimit="10" stroke-width="1.5" stroke-dasharray=""/></g><g><g transform="matrix(0.06,0,0,0.06,9.4,9.4)"><g transform="matrix(1,0,0,1,0,0)"><path fill="#393f44" stroke="black" id="_3069C4BA-114A-4A9B-A39A-60916467AB47_task__BkeM__ngei" paint-order="fill stroke markers" d=" M 0 0 M 16 445.2101 C 16 440.86867 18.784312 431.12906000000004 22.001325 424.21728 C 35.767643 394.6402 77.282944 359.28049 129 333.08362 C 144.51625 325.22398 157.34689 319.96394 167.80739 317.17416 C 171.93153 316.07426 175.72913 314.41389999999996 176.5251 313.36265 C 178.89361 310.23449999999997 180.91404 302.90781 181.72673 294.5 L 182.5 286.5 L 178.50715 283.45457 C 166.30327 274.14645 154.2837 251.67767 148.03953 226.5 C 145.61086 216.70715 145.05603000000002 215.46246 142.98364 215.1579 C 141.70332000000002 214.96974 138.08302 212.24302 134.93852 209.09852 C 123.23314 197.39314000000002 116.89146000000001 177.37556 121.43982000000001 166.48978 C 123.00204000000001 162.75088 128.15457 159.00970999999998 131.75 159.00374 C 134.44781 158.99974 134.47062 158.60296 132.91375 138.78796 C 130.92658 113.4962 134.27903 92.26542699999999 143.13217 74.075676 C 152.23162 55.379835 167.56889 42.88208 189.04934 36.659507000000005 C 210.20334 30.531504000000005 237.79666 30.531504000000005 258.95065999999997 36.659507000000005 C 300.04166 48.562968000000005 318.95842 83.80634 314.95504999999997 141 C 314.31982999999997 150.075 313.62402 157.78816 313.4088 158.14035 C 313.19359 158.49254000000002 314.57532 159.07295000000002 316.47931 159.43014000000002 C 328.92867 161.76565000000002 330.98619 177.01772000000003 321.49638 196.62092 C 316.90319 206.10912000000002 309.35724 214.50797 304.81732 215.18517000000003 C 303.02259 215.45289000000002 302.2931 217.14618000000002 299.94277999999997 226.50000000000003 C 296.65948 239.56693 294.47402 245.30522000000002 287.94764 257.99534000000006 C 282.49071999999995 268.60596000000004 273.03466 281.10922000000005 268.10756999999995 284.2288300000001 L 264.87062 286.27832000000006 L 265.51815999999997 292.88916000000006 C 266.34490999999997 301.32961000000006 268.63948999999997 309.8706000000001 270.87735999999995 312.83742000000007 C 272.06735 314.4150200000001 275.00244999999995 315.78963000000005 280.0630699999999 317.13941000000005 C 291.06929999999994 320.0750300000001 303.61700999999994 325.27420000000006 320.99999999999994 334.10171 C 369.81470999999993 358.89104000000003 410.84810999999996 393.75797 425.03216 422.5 C 429.06985999999995 430.68183 432 440.23198 432 445.2101 L 432 448 L 224 448 L 16 448 L 16 445.2101 Z" stroke-miterlimit="10" stroke-dasharray=""/></g></g></g><g transform="matrix(1,0,0,1,4.039999999999992,13.680000000000007)"><g transform="matrix(0.04,0,0,0.04,63.36,69.12)"><g transform="matrix(1,0,0,1,0,0)"><path fill="none" stroke="none"/></g><g transform="matrix(1,0,0,1,0,0)"><path fill="none" stroke="none"/></g></g></g><g transform="matrix(1,0,0,1,35,43.5)"><text fill="#000000" stroke="none" font-family="Open Sans" font-size="12pt" font-style="normal" font-weight="normal" text-decoration="normal" x="48.46484375" y="12" text-anchor="middle" dominant-baseline="alphabetic">Validate data</text></g></g><g id="_41B73B8C-511C-4C25-9484-D3D74A7B1970" bpmn2nodeid="_41B73B8C-511C-4C25-9484-D3D74A7B1970" transform="matrix(1,0,0,1,401,98.5)"><g><path fill="none" stroke="none"/></g><g transform="matrix(0.125,0,0,0.125,0,0)"><g transform="matrix(1,0,0,1,0,0)"><path fill="#fce7e7" stroke="black" id="_41B73B8C-511C-4C25-9484-D3D74A7B1970?shapeType=BACKGROUND" paint-order="fill stroke markers" d=" M 0 0 M 444 224 C 444 263.9 434.2 300.8 414.4 334.5 C 394.7 368.2 368 394.9 334.4 414.5 C 300.79999999999995 434.1 263.9 444 224 444 C 184.10000000000002 444 147.2 434.2 113.5 414.4 C 79.8 394.7 53.1 368 33.5 334.4 C 13.899999999999999 300.79999999999995 4 263.9 4 224 C 4 184.10000000000002 13.8 147.2 33.6 113.5 C 53.400000000000006 79.80000000000001 80.1 53.1 113.6 33.5 C 147.1 13.899999999999999 184.1 4 224 4 C 263.9 4 300.8 13.8 334.5 33.6 C 368.2 53.400000000000006 394.9 80.1 414.5 113.6 C 434.1 147.1 444 184.1 444 224 Z" stroke-miterlimit="10" stroke-dasharray=""/></g><g><g transform="matrix(1,0,0,1,0,0)"><g transform="matrix(1,0,0,1,0,0)"><path fill="#a30000" stroke="black" id="_41B73B8C-511C-4C25-9484-D3D74A7B1970?shapeType=BORDER&amp;renderType=FILL" paint-order="fill stroke markers" d=" M 0 0 M 224 0 C 100.3 0 0 100.3 0 224 C 0 347.7 100.3 448 224 448 C 347.7 448 448 347.7 448 224 C 448 100.30000000000001 347.7 0 224 0 Z M 0 0 M 224 400 C 126.8 400 48 321.2 48 224 C 48 126.80000000000001 126.8 48 224 48 C 321.2 48 400 126.8 400 224 C 400 321.2 321.2 400 224 400 Z" stroke-miterlimit="10" stroke-dasharray=""/></g></g></g></g><g transform="matrix(1,0,0,1,28,61)"/></g></g><g transform="matrix(1,0,0,1,706,151.5)"/><g transform="matrix(1,0,0,1,737,250)"/><g transform="matrix(1,0,0,1,873,227)"/><g transform="matrix(1,0,0,1,1107,250)"/><g id="_3F2AAFD6-5E25-4AFB-9953-90F4D11AE936" bpmn2nodeid="_3F2AAFD6-5E25-4AFB-9953-90F4D11AE936" transform="matrix(1,0,0,1,161,250)"><g><path fill="none" stroke="none"/></g><g transform="matrix(0.125,0,0,0.125,0,0)"><g transform="matrix(1,0,0,1,0,0)"><path fill="#e8fae6" stroke="black" id="_3F2AAFD6-5E25-4AFB-9953-90F4D11AE936?shapeType=BACKGROUND" paint-order="fill stroke markers" d=" M 0 0 M 444 224 C 444 263.9 434.2 300.8 414.4 334.5 C 394.7 368.2 368 394.9 334.4 414.5 C 300.79999999999995 434.1 263.9 444 224 444 C 184.10000000000002 444 147.2 434.2 113.5 414.4 C 79.8 394.7 53.1 368 33.5 334.4 C 13.899999999999999 300.79999999999995 4 263.9 4 224 C 4 184.10000000000002 13.8 147.2 33.6 113.5 C 53.400000000000006 79.80000000000001 80.1 53.1 113.6 33.5 C 147.1 13.899999999999999 184.1 4 224 4 C 263.9 4 300.8 13.8 334.5 33.6 C 368.2 53.400000000000006 394.9 80.1 414.5 113.6 C 434.1 147.1 444 184.1 444 224 Z" stroke-miterlimit="10" stroke-dasharray=""/></g><g><g transform="matrix(1,0,0,1,0,0)"><g transform="matrix(1,0,0,1,0,0)"><path fill="#4aa241" stroke="black" id="_3F2AAFD6-5E25-4AFB-9953-90F4D11AE936?shapeType=BORDER&amp;renderType=FILL" paint-order="fill stroke markers" d=" M 0 0 M 224 0 C 100.3 0 0 100.3 0 224 C 0 347.7 100.3 448 224 448 C 347.7 448 448 347.7 448 224 C 448 100.30000000000001 347.7 0 224 0 Z M 0 0 M 224 432 C 109.1 432 16 338.9 16 224 C 16 109.10000000000002 109.1 16 224 16 C 338.9 16 432 109.1 432 224 C 432 338.9 338.9 432 224 432 Z" stroke-miterlimit="10" stroke-dasharray=""/></g></g></g></g><g transform="matrix(1,0,0,1,-29.33203125,61)"><text fill="#000000" stroke="none" font-family="Open Sans" font-size="12pt" font-style="normal" font-weight="normal" text-decoration="normal" x="57.33203125" y="12" text-anchor="middle" dominant-baseline="alphabetic">Process started</text></g></g><g transform="matrix(1,0,0,1,161,250)"/><g id="_5C0AD164-2F11-4AC0-87FC-E08864BB350E" bpmn2nodeid="_5C0AD164-2F11-4AC0-87FC-E08864BB350E" transform="matrix(1,0,0,1,570,250)"><g><path fill="none" stroke="none"/></g><g transform="matrix(0.125,0,0,0.125,0,0)"><g transform="matrix(1,0,0,1,0,0)"><path fill="#fbefcf" stroke="black" id="_5C0AD164-2F11-4AC0-87FC-E08864BB350E?shapeType=BACKGROUND" paint-order="fill stroke markers" d=" M 0 0 M 444 224 C 444 263.9 434.2 300.8 414.4 334.5 C 394.7 368.2 368 394.9 334.4 414.5 C 300.79999999999995 434.1 263.9 444 224 444 C 184.10000000000002 444 147.2 434.2 113.5 414.4 C 79.8 394.7 53.1 368 33.5 334.4 C 13.899999999999999 300.79999999999995 4 263.9 4 224 C 4 184.10000000000002 13.8 147.2 33.6 113.5 C 53.400000000000006 79.80000000000001 80.1 53.1 113.6 33.5 C 147.1 13.899999999999999 184.1 4 224 4 C 263.9 4 300.8 13.8 334.5 33.6 C 368.2 53.400000000000006 394.9 80.1 414.5 113.6 C 434.1 147.1 444 184.1 444 224 Z" stroke-miterlimit="10" stroke-dasharray=""/></g><g><g transform="matrix(1,0,0,1,0,0)"><g transform="matrix(1,0,0,1,0,0)"><path fill="#e5a000" stroke="none" id="_5C0AD164-2F11-4AC0-87FC-E08864BB350E?shapeType=BORDER&amp;renderType=FILL" paint-order="stroke fill markers" d=" M 0 0 M 224 408 C 122.5 408 40 325.5 40 224 C 40 122.5 122.5 40 224 40 C 325.5 40 408 122.5 408 224 C 408 325.5 325.5 408 224 408 Z M 0 0 M 224 56 C 131.4 56 56 131.4 56 224 C 56 316.6 131.4 392 224 392 C 316.6 392 392 316.6 392 224 C 392 131.39999999999998 316.6 56 224 56 Z M 0 0 M 224 16 C 252.1 16 279.3 21.5 305 32.3 C 329.8 42.8 352 57.8 371.1 76.9 C 390.20000000000005 96.00000000000001 405.20000000000005 118.30000000000001 415.70000000000005 143 C 426.50000000000006 168.6 432.00000000000006 195.9 432.00000000000006 224 C 432.00000000000006 252.1 426.50000000000006 279.3 415.70000000000005 305 C 405.20000000000005 329.8 390.20000000000005 352 371.1 371.1 C 352 390.20000000000005 329.70000000000005 405.20000000000005 305 415.70000000000005 C 279.4 426.50000000000006 252.1 432.00000000000006 224 432.00000000000006 C 195.9 432.00000000000006 168.7 426.50000000000006 143 415.70000000000005 C 118.2 405.20000000000005 96 390.20000000000005 76.9 371.1 C 57.80000000000001 352 42.8 329.7 32.3 305 C 21.5 279.3 16 252.1 16 224 C 16 195.9 21.5 168.7 32.3 143 C 42.8 118.2 57.8 96 76.9 76.9 C 96.00000000000001 57.80000000000001 118.30000000000001 42.800000000000004 143 32.300000000000004 C 168.7 21.5 195.9 16 224 16 M 224 0 C 100.3 0 0 100.3 0 224 C 0 347.7 100.3 448 224 448 C 347.7 448 448 347.7 448 224 C 448 100.30000000000001 347.7 0 224 0 L 224 0 Z"/></g></g></g><g><g transform="matrix(1,0,0,1,0,0)"><g transform="matrix(1,0,0,1,0,0)"><path fill="#e5a000" stroke="black" id="_5C0AD164-2F11-4AC0-87FC-E08864BB350E_link-catching" paint-order="fill stroke markers" d=" M 0 0 M 222.9 147.4 L 222.9 147.4 L 304.2 228.7 C 304.2 228.79999999999998 304.2 228.79999999999998 304.2 228.79999999999998 L 223.1 310 C 223 310 223 310.1 222.9 310.1 L 222.8 310.1 C 222.70000000000002 310.1 222.70000000000002 310 222.70000000000002 310 L 213.50000000000003 300.8 L 213.40000000000003 300.8 L 213.50000000000003 300.8 L 250.10000000000002 264.2 L 277.40000000000003 236.89999999999998 L 144.2 236.89999999999998 L 144.2 220.89999999999998 L 277.29999999999995 220.89999999999998 L 250.09999999999997 193.59999999999997 L 213.49999999999997 156.79999999999995 L 222.9 147.4 M 222.8 131.3 C 218.5 131.3 214.70000000000002 132.9 211.60000000000002 136.10000000000002 L 202.3 145.50000000000003 C 199.10000000000002 148.50000000000003 197.5 152.30000000000004 197.5 156.70000000000002 C 197.5 161.1 199.1 164.9 202.3 167.9 L 238.9 204.7 L 142.9 204.7 C 138.5 204.7 135 206.29999999999998 132.3 209.39999999999998 C 129.60000000000002 212.49999999999997 128.3 216.29999999999998 128.3 220.7 L 128.3 236.7 C 128.3 241.1 129.60000000000002 244.89999999999998 132.3 248 C 135 251.10000000000002 138.5 252.7 142.9 252.7 L 238.9 252.7 L 202.3 289.3 C 199.10000000000002 292.5 197.5 296.3 197.5 300.7 C 197.5 305.09999999999997 199.1 308.9 202.3 312.09999999999997 L 211.70000000000002 321.49999999999994 C 214.9 324.59999999999997 218.70000000000002 326.09999999999997 222.9 326.09999999999997 C 227.3 326.09999999999997 231 324.59999999999997 234.3 321.49999999999994 L 315.70000000000005 240.09999999999994 C 318.80000000000007 236.99999999999994 320.30000000000007 233.19999999999993 320.30000000000007 228.69999999999993 C 320.30000000000007 224.09999999999994 318.80000000000007 220.39999999999992 315.70000000000005 217.49999999999994 L 234.30000000000004 136.19999999999993 C 231.1 132.9 227.3 131.3 222.8 131.3 L 222.8 131.3 Z" stroke-miterlimit="10" stroke-dasharray=""/></g></g></g></g><g transform="matrix(1,0,0,1,-53.515625,61)"><text fill="#000000" stroke="none" font-family="Open Sans" font-size="12pt" font-style="normal" font-weight="normal" text-decoration="normal" x="81.515625" y="12" text-anchor="middle" dominant-baseline="alphabetic">Validation subprocess</text></g></g><g transform="matrix(1,0,0,1,570,250)"/><g id="_F1808433-2A15-4203-AFE3-4245D6AEF3B3" bpmn2nodeid="_F1808433-2A15-4203-AFE3-4245D6AEF3B3" transform="matrix(1,0,0,1,343,250)"><g><path fill="none" stroke="none"/></g><g transform="matrix(0.125,0,0,0.125,0,0)"><g transform="matrix(1,0,0,1,0,0)"><path fill="#bedee1" stroke="black" id="_F1808433-2A15-4203-AFE3-4245D6AEF3B3?shapeType=BACKGROUND" paint-order="fill stroke markers" d=" M 0 0 M 444 224 C 444 263.9 434.2 300.8 414.4 334.5 C 394.7 368.2 368 394.9 334.4 414.5 C 300.79999999999995 434.1 263.9 444 224 444 C 184.10000000000002 444 147.2 434.2 113.5 414.4 C 79.8 394.7 53.1 368 33.5 334.4 C 13.899999999999999 300.79999999999995 4 263.9 4 224 C 4 184.10000000000002 13.8 147.2 33.6 113.5 C 53.400000000000006 79.80000000000001 80.1 53.1 113.6 33.5 C 147.1 13.899999999999999 184.1 4 224 4 C 263.9 4 300.8 13.8 334.5 33.6 C 368.2 53.400000000000006 394.9 80.1 414.5 113.6 C 434.1 147.1 444 184.1 444 224 Z" stroke-miterlimit="10" stroke-dasharray=""/></g><g><g transform="matrix(1,0,0,1,0,0)"><g transform="matrix(1,0,0,1,0,0)"><path fill="#007a87" stroke="black" id="_F1808433-2A15-4203-AFE3-4245D6AEF3B3?shapeType=BORDER&amp;renderType=FILL" paint-order="fill stroke markers" d=" M 0 0 M 224 408 C 122.5 408 40 325.5 40 224 C 40 122.5 122.5 40 224 40 C 325.5 40 408 122.5 408 224 C 408 325.5 325.5 408 224 408 Z M 0 0 M 224 56 C 131.4 56 56 131.4 56 224 C 56 316.6 131.4 392 224 392 C 316.6 392 392 316.6 392 224 C 392 131.39999999999998 316.6 56 224 56 Z M 0 0 M 224 16 C 252.1 16 279.3 21.5 305 32.3 C 329.8 42.8 352 57.8 371.1 76.9 C 390.20000000000005 96.00000000000001 405.20000000000005 118.30000000000001 415.70000000000005 143 C 426.50000000000006 168.6 432.00000000000006 195.9 432.00000000000006 224 C 432.00000000000006 252.1 426.50000000000006 279.3 415.70000000000005 305 C 405.20000000000005 329.8 390.20000000000005 352 371.1 371.1 C 352 390.20000000000005 329.70000000000005 405.20000000000005 305 415.70000000000005 C 279.4 426.50000000000006 252.1 432.00000000000006 224 432.00000000000006 C 195.9 432.00000000000006 168.7 426.50000000000006 143 415.70000000000005 C 118.2 405.20000000000005 96 390.20000000000005 76.9 371.1 C 57.80000000000001 352 42.8 329.7 32.3 305 C 21.5 279.3 16 252.1 16 224 C 16 195.9 21.5 168.7 32.3 143 C 42.8 118.2 57.8 96 76.9 76.9 C 96.00000000000001 57.80000000000001 118.30000000000001 42.800000000000004 143 32.300000000000004 C 168.7 21.5 195.9 16 224 16 M 224 0 C 100.3 0 0 100.3 0 224 C 0 347.7 100.3 448 224 448 C 347.7 448 448 347.7 448 224 C 448 100.30000000000001 347.7 0 224 0 L 224 0 Z" stroke-miterlimit="10" stroke-dasharray=""/></g></g></g><g><g transform="matrix(1,0,0,1,0,0)"><g transform="matrix(1,0,0,1,0,0)"><path fill="#007a87" stroke="black" id="_F1808433-2A15-4203-AFE3-4245D6AEF3B3_link-throwing" paint-order="fill stroke markers" d=" M 0 0 M 222.8 131.3 C 218.5 131.3 214.70000000000002 132.9 211.60000000000002 136.10000000000002 L 202.3 145.50000000000003 C 199.10000000000002 148.50000000000003 197.5 152.30000000000004 197.5 156.70000000000002 C 197.5 161.1 199.1 164.9 202.3 167.9 L 238.9 204.7 L 142.9 204.7 C 138.5 204.7 135 206.29999999999998 132.3 209.39999999999998 C 129.60000000000002 212.49999999999997 128.3 216.29999999999998 128.3 220.7 L 128.3 236.7 C 128.3 241.1 129.60000000000002 244.89999999999998 132.3 248 C 135 251.10000000000002 138.5 252.7 142.9 252.7 L 238.9 252.7 L 202.3 289.3 C 199.10000000000002 292.5 197.5 296.3 197.5 300.7 C 197.5 305.09999999999997 199.1 308.9 202.3 312.09999999999997 L 211.70000000000002 321.49999999999994 C 214.9 324.59999999999997 218.70000000000002 326.09999999999997 222.9 326.09999999999997 C 227.3 326.09999999999997 231 324.59999999999997 234.3 321.49999999999994 L 315.70000000000005 240.09999999999994 C 318.80000000000007 236.99999999999994 320.30000000000007 233.19999999999993 320.30000000000007 228.69999999999993 C 320.30000000000007 224.09999999999994 318.80000000000007 220.39999999999992 315.70000000000005 217.49999999999994 L 234.30000000000004 136.19999999999993 C 231.1 132.9 227.3 131.3 222.8 131.3 L 222.8 131.3 Z" stroke-miterlimit="10" stroke-dasharray=""/></g></g></g></g><g transform="matrix(1,0,0,1,-72.75390625,61)"><text fill="#000000" stroke="none" font-family="Open Sans" font-size="12pt" font-style="normal" font-weight="normal" text-decoration="normal" x="100.75390625" y="12" text-anchor="middle" dominant-baseline="alphabetic">Start validation subprocess</text></g></g><g transform="matrix(1,0,0,1,343,250)"/><g id="_BA6438EA-56C8-4ABE-A942-253D5E5D9FC8" bpmn2nodeid="_BA6438EA-56C8-4ABE-A942-253D5E5D9FC8" transform="matrix(1,0,0,1,1366,249.5)"><g><path fill="none" stroke="none"/></g><g transform="matrix(0.125,0,0,0.125,0,0)"><g transform="matrix(1,0,0,1,0,0)"><path fill="#fef4ea" stroke="black" id="_BA6438EA-56C8-4ABE-A942-253D5E5D9FC8?shapeType=BACKGROUND" paint-order="fill stroke markers" d=" M 0 0 M 224.4 4.3 C 216.4 4.3 208.4 7.3 202.3 13.399999999999999 L 13.5 202.2 C 1.3000000000000007 214.39999999999998 1.3000000000000007 234.2 13.5 246.39999999999998 L 202.2 435.09999999999997 C 208.29999999999998 441.2 216.39999999999998 444.2 224.29999999999998 444.2 C 232.2 444.2 240.29999999999998 441.2 246.39999999999998 435.09999999999997 L 435.09999999999997 246.39999999999998 C 447.29999999999995 234.2 447.29999999999995 214.39999999999998 435.09999999999997 202.2 L 246.5 13.4 C 240.4 7.3 232.4 4.3 224.4 4.3 L 224.4 4.3 Z" stroke-miterlimit="10" stroke-dasharray=""/></g><g><g transform="matrix(1,0,0,1,0,0)"><g transform="matrix(1,0,0,1,0,0)"><path fill="#ec7a08" stroke="black" id="_BA6438EA-56C8-4ABE-A942-253D5E5D9FC8?shapeType=BORDER&amp;renderType=FILL" paint-order="fill stroke markers" d=" M 0 0 M 20.8 212.7 L 213.3 20.2 C 219.60000000000002 13.899999999999999 229.70000000000002 13.899999999999999 235.9 20.2 L 428.4 212.7 C 434.7 219 434.7 229.1 428.4 235.29999999999998 L 235.9 427.8 C 229.6 434.1 219.5 434.1 213.3 427.8 L 20.8 235.3 C 14.5 229.1 14.5 218.9 20.8 212.7 L 20.8 212.7 Z M 0 0 M 0 224 C 0 232.1 3.1 240.3 9.3 246.5 L 201.5 438.7 C 213.9 451.09999999999997 234.1 451.09999999999997 246.5 438.7 L 438.7 246.5 C 444.9 240.3 448 232.1 448 224 C 448 215.9 444.9 207.7 438.7 201.5 L 246.5 9.3 C 234.1 -3.0999999999999996 213.9 -3.0999999999999996 201.5 9.3 L 9.3 201.5 C 3.1 207.7 0 215.9 0 224 L 0 224 Z" stroke-miterlimit="10" stroke-dasharray=""/></g></g></g><g><g transform="matrix(1,0,0,1,0,0)"><g transform="matrix(1,0,0,1,0,0)"><path fill="#ec7a08" stroke="black" id="_BA6438EA-56C8-4ABE-A942-253D5E5D9FC8_exclusive" paint-order="fill stroke markers" d=" M 0 0 M 298.2 269.2 C 298.2 272.59999999999997 297.09999999999997 275.3 294.7 277.7 L 277.7 294.7 C 275.3 297.09999999999997 272.59999999999997 298.2 269.2 298.2 C 265.8 298.2 263.09999999999997 297.09999999999997 260.7 294.7 L 224 258 L 187.2 294.8 C 184.79999999999998 297.2 182.1 298.3 178.7 298.3 C 175.29999999999998 298.3 172.6 297.2 170.2 294.8 L 153.2 277.8 C 150.79999999999998 275.40000000000003 149.7 272.7 149.7 269.3 C 149.7 265.90000000000003 150.79999999999998 263.2 153.2 260.8 L 190 224 L 153.2 187.2 C 150.79999999999998 184.79999999999998 149.7 182 149.7 178.7 C 149.7 175.29999999999998 150.79999999999998 172.5 153.2 170.2 L 170.2 153.2 C 172.6 150.79999999999998 175.29999999999998 149.7 178.7 149.7 C 182.1 149.7 184.79999999999998 150.79999999999998 187.2 153.2 L 224 190 L 260.8 153.2 C 263.2 150.79999999999998 265.90000000000003 149.7 269.3 149.7 C 272.7 149.7 275.40000000000003 150.79999999999998 277.8 153.2 L 294.8 170.2 C 297.2 172.5 298.3 175.29999999999998 298.3 178.7 C 298.3 182 297.2 184.79999999999998 294.8 187.2 L 258 224 L 294.8 260.8 C 297.1 263.1 298.2 265.9 298.2 269.2 Z" stroke-miterlimit="10" stroke-dasharray=""/></g></g></g></g><g transform="matrix(1,0,0,1,-19.66796875,61)"><text fill="#000000" stroke="none" font-family="Open Sans" font-size="12pt" font-style="normal" font-weight="normal" text-decoration="normal" x="47.66796875" y="12" text-anchor="middle" dominant-baseline="alphabetic">Is data valid?</text></g></g><g transform="matrix(1,0,0,1,1366,249.5)"/><g id="_1A71E719-8E4A-4208-BD4A-0312D42D9282" bpmn2nodeid="_1A71E719-8E4A-4208-BD4A-0312D42D9282" transform="matrix(1,0,0,1,1502,249.5)"><g><path fill="none" stroke="none"/></g><g transform="matrix(0.125,0,0,0.125,0,0)"><g transform="matrix(1,0,0,1,0,0)"><path fill="#fce7e7" stroke="black" id="_1A71E719-8E4A-4208-BD4A-0312D42D9282?shapeType=BACKGROUND" paint-order="fill stroke markers" d=" M 0 0 M 444 224 C 444 263.9 434.2 300.8 414.4 334.5 C 394.7 368.2 368 394.9 334.4 414.5 C 300.79999999999995 434.1 263.9 444 224 444 C 184.10000000000002 444 147.2 434.2 113.5 414.4 C 79.8 394.7 53.1 368 33.5 334.4 C 13.899999999999999 300.79999999999995 4 263.9 4 224 C 4 184.10000000000002 13.8 147.2 33.6 113.5 C 53.400000000000006 79.80000000000001 80.1 53.1 113.6 33.5 C 147.1 13.899999999999999 184.1 4 224 4 C 263.9 4 300.8 13.8 334.5 33.6 C 368.2 53.400000000000006 394.9 80.1 414.5 113.6 C 434.1 147.1 444 184.1 444 224 Z" stroke-miterlimit="10" stroke-dasharray=""/></g><g><g transform="matrix(1,0,0,1,0,0)"><g transform="matrix(1,0,0,1,0,0)"><path fill="#a30000" stroke="black" id="_1A71E719-8E4A-4208-BD4A-0312D42D9282?shapeType=BORDER&amp;renderType=FILL" paint-order="fill stroke markers" d=" M 0 0 M 224 0 C 100.3 0 0 100.3 0 224 C 0 347.7 100.3 448 224 448 C 347.7 448 448 347.7 448 224 C 448 100.30000000000001 347.7 0 224 0 Z M 0 0 M 224 400 C 126.8 400 48 321.2 48 224 C 48 126.80000000000001 126.8 48 224 48 C 321.2 48 400 126.8 400 224 C 400 321.2 321.2 400 224 400 Z" stroke-miterlimit="10" stroke-dasharray=""/></g></g></g></g><g transform="matrix(1,0,0,1,-42.47265625,61)"><text fill="#000000" stroke="none" font-family="Open Sans" font-size="12pt" font-style="normal" font-weight="normal" text-decoration="normal" x="70.47265625" y="12" text-anchor="middle" dominant-baseline="alphabetic">Process completed</text></g></g><g transform="matrix(1,0,0,1,1502,249.5)"/><g id="_F0B10E27-3230-4470-9B8C-CCF7F344EA24" bpmn2nodeid="_F0B10E27-3230-4470-9B8C-CCF7F344EA24" transform="matrix(1,0,0,1,1502,345.5)"><g><path fill="none" stroke="none"/></g><g transform="matrix(0.125,0,0,0.125,0,0)"><g transform="matrix(1,0,0,1,0,0)"><path fill="#bedee1" stroke="black" id="_F0B10E27-3230-4470-9B8C-CCF7F344EA24?shapeType=BACKGROUND" paint-order="fill stroke markers" d=" M 0 0 M 444 224 C 444 263.9 434.2 300.8 414.4 334.5 C 394.7 368.2 368 394.9 334.4 414.5 C 300.79999999999995 434.1 263.9 444 224 444 C 184.10000000000002 444 147.2 434.2 113.5 414.4 C 79.8 394.7 53.1 368 33.5 334.4 C 13.899999999999999 300.79999999999995 4 263.9 4 224 C 4 184.10000000000002 13.8 147.2 33.6 113.5 C 53.400000000000006 79.80000000000001 80.1 53.1 113.6 33.5 C 147.1 13.899999999999999 184.1 4 224 4 C 263.9 4 300.8 13.8 334.5 33.6 C 368.2 53.400000000000006 394.9 80.1 414.5 113.6 C 434.1 147.1 444 184.1 444 224 Z" stroke-miterlimit="10" stroke-dasharray=""/></g><g><g transform="matrix(1,0,0,1,0,0)"><g transform="matrix(1,0,0,1,0,0)"><path fill="#007a87" stroke="black" id="_F0B10E27-3230-4470-9B8C-CCF7F344EA24?shapeType=BORDER&amp;renderType=FILL" paint-order="fill stroke markers" d=" M 0 0 M 224 408 C 122.5 408 40 325.5 40 224 C 40 122.5 122.5 40 224 40 C 325.5 40 408 122.5 408 224 C 408 325.5 325.5 408 224 408 Z M 0 0 M 224 56 C 131.4 56 56 131.4 56 224 C 56 316.6 131.4 392 224 392 C 316.6 392 392 316.6 392 224 C 392 131.39999999999998 316.6 56 224 56 Z M 0 0 M 224 16 C 252.1 16 279.3 21.5 305 32.3 C 329.8 42.8 352 57.8 371.1 76.9 C 390.20000000000005 96.00000000000001 405.20000000000005 118.30000000000001 415.70000000000005 143 C 426.50000000000006 168.6 432.00000000000006 195.9 432.00000000000006 224 C 432.00000000000006 252.1 426.50000000000006 279.3 415.70000000000005 305 C 405.20000000000005 329.8 390.20000000000005 352 371.1 371.1 C 352 390.20000000000005 329.70000000000005 405.20000000000005 305 415.70000000000005 C 279.4 426.50000000000006 252.1 432.00000000000006 224 432.00000000000006 C 195.9 432.00000000000006 168.7 426.50000000000006 143 415.70000000000005 C 118.2 405.20000000000005 96 390.20000000000005 76.9 371.1 C 57.80000000000001 352 42.8 329.7 32.3 305 C 21.5 279.3 16 252.1 16 224 C 16 195.9 21.5 168.7 32.3 143 C 42.8 118.2 57.8 96 76.9 76.9 C 96.00000000000001 57.80000000000001 118.30000000000001 42.800000000000004 143 32.300000000000004 C 168.7 21.5 195.9 16 224 16 M 224 0 C 100.3 0 0 100.3 0 224 C 0 347.7 100.3 448 224 448 C 347.7 448 448 347.7 448 224 C 448 100.30000000000001 347.7 0 224 0 L 224 0 Z" stroke-miterlimit="10" stroke-dasharray=""/></g></g></g><g><g transform="matrix(1,0,0,1,0,0)"><g transform="matrix(1,0,0,1,0,0)"><path fill="#007a87" stroke="black" id="_F0B10E27-3230-4470-9B8C-CCF7F344EA24_link-throwing" paint-order="fill stroke markers" d=" M 0 0 M 222.8 131.3 C 218.5 131.3 214.70000000000002 132.9 211.60000000000002 136.10000000000002 L 202.3 145.50000000000003 C 199.10000000000002 148.50000000000003 197.5 152.30000000000004 197.5 156.70000000000002 C 197.5 161.1 199.1 164.9 202.3 167.9 L 238.9 204.7 L 142.9 204.7 C 138.5 204.7 135 206.29999999999998 132.3 209.39999999999998 C 129.60000000000002 212.49999999999997 128.3 216.29999999999998 128.3 220.7 L 128.3 236.7 C 128.3 241.1 129.60000000000002 244.89999999999998 132.3 248 C 135 251.10000000000002 138.5 252.7 142.9 252.7 L 238.9 252.7 L 202.3 289.3 C 199.10000000000002 292.5 197.5 296.3 197.5 300.7 C 197.5 305.09999999999997 199.1 308.9 202.3 312.09999999999997 L 211.70000000000002 321.49999999999994 C 214.9 324.59999999999997 218.70000000000002 326.09999999999997 222.9 326.09999999999997 C 227.3 326.09999999999997 231 324.59999999999997 234.3 321.49999999999994 L 315.70000000000005 240.09999999999994 C 318.80000000000007 236.99999999999994 320.30000000000007 233.19999999999993 320.30000000000007 228.69999999999993 C 320.30000000000007 224.09999999999994 318.80000000000007 220.39999999999992 315.70000000000005 217.49999999999994 L 234.30000000000004 136.19999999999993 C 231.1 132.9 227.3 131.3 222.8 131.3 L 222.8 131.3 Z" stroke-miterlimit="10" stroke-dasharray=""/></g></g></g></g><g transform="matrix(1,0,0,1,-39.21484375,61)"><text fill="#000000" stroke="none" font-family="Open Sans" font-size="12pt" font-style="normal" font-weight="normal" text-decoration="normal" x="67.21484375" y="12" text-anchor="middle" dominant-baseline="alphabetic">Restart validation </text><text fill="#000000" stroke="none" font-family="Open Sans" font-size="12pt" font-style="normal" font-weight="normal" text-decoration="normal" x="67.21484375" y="27" text-anchor="middle" dominant-baseline="alphabetic">      subprocess      </text></g></g><g transform="matrix(1,0,0,1,1502,345.5)"/><g id="_E5168024-7EBE-4DC5-AEC9-F92250B1BE90" bpmn2nodeid="_E5168024-7EBE-4DC5-AEC9-F92250B1BE90"><g><path fill="none" stroke="#000000" paint-order="fill stroke markers" d=" M 217 278 L 328 278" stroke-miterlimit="10" stroke-dasharray=""/></g><g transform="matrix(1,0,0,1,217,278)"/><g transform="matrix(6.123233995736766e-17,1,-1,6.123233995736766e-17,343,273)"><path fill="#000000" stroke="#000000" paint-order="fill stroke markers" d=" M 10 15 L 0 15 L 5 0 Z" stroke-miterlimit="10" stroke-dasharray=""/></g><g transform="matrix(1,0,0,1,217,268)"/></g><g id="_F921989C-EED0-4FCA-9DBF-E41659820F46" bpmn2nodeid="_F921989C-EED0-4FCA-9DBF-E41659820F46"><g><path fill="none" stroke="#000000" paint-order="fill stroke markers" d=" M 626 278 L 691 278" stroke-miterlimit="10" stroke-dasharray=""/></g><g transform="matrix(1,0,0,1,626,278)"/><g transform="matrix(6.123233995736766e-17,1,-1,6.123233995736766e-17,706,273)"><path fill="#000000" stroke="#000000" paint-order="fill stroke markers" d=" M 10 15 L 0 15 L 5 0 Z" stroke-miterlimit="10" stroke-dasharray=""/></g><g transform="matrix(1,0,0,1,626,268)"/></g><g id="_87128CD6-FBCC-4977-A9BD-F12C1661DFA9" bpmn2nodeid="_87128CD6-FBCC-4977-A9BD-F12C1661DFA9"><g><path fill="none" stroke="#000000" paint-order="fill stroke markers" d=" M 1250 278 L 1351.0001393411023 277.5646545718056" stroke-miterlimit="10" stroke-dasharray=""/></g><g transform="matrix(1,0,0,1,1250,278)"/><g transform="matrix(0.004310304787039338,0.9999907105931749,-0.9999907105931749,0.004310304787039338,1365.9784484760648,272.50004644703415)"><path fill="#000000" stroke="#000000" paint-order="fill stroke markers" d=" M 10 15 L 0 15 L 5 0 Z" stroke-miterlimit="10" stroke-dasharray=""/></g><g transform="matrix(1,0,0,1,1250.0431030478703,267.75009289406825)"/></g><g id="_C7351E64-966C-41C2-AF2E-AC4ECC5D6940" bpmn2nodeid="_C7351E64-966C-41C2-AF2E-AC4ECC5D6940"><g><path fill="none" stroke="#000000" paint-order="fill stroke markers" d=" M 1422 277.5 L 1487 277.5" stroke-miterlimit="10" stroke-dasharray=""/></g><g transform="matrix(1,0,0,1,1422,277.5)"/><g transform="matrix(6.123233995736766e-17,1,-1,6.123233995736766e-17,1502,272.5)"><path fill="#000000" stroke="#000000" paint-order="fill stroke markers" d=" M 10 15 L 0 15 L 5 0 Z" stroke-miterlimit="10" stroke-dasharray=""/></g><g transform="matrix(1,0,0,1,1422,256.5)"><text fill="#000000" stroke="none" font-family="Open Sans" font-size="10pt" font-style="normal" font-weight="normal" text-decoration="normal" x="0" y="8.8" text-anchor="start" dominant-baseline="alphabetic">Yes                 </text></g></g><g id="_7438D718-F7A2-45F1-BBBB-309FC9E771E8" bpmn2nodeid="_7438D718-F7A2-45F1-BBBB-309FC9E771E8"><g><path fill="none" stroke="#000000" paint-order="fill stroke markers" d=" M 1394 305.5 L 1394 373.5 L 1487 373.5" stroke-miterlimit="10" stroke-dasharray=""/></g><g transform="matrix(1,0,0,1,1394,305.5)"/><g transform="matrix(6.123233995736766e-17,1,-1,6.123233995736766e-17,1502,368.5)"><path fill="#000000" stroke="#000000" paint-order="fill stroke markers" d=" M 10 15 L 0 15 L 5 0 Z" stroke-miterlimit="10" stroke-dasharray=""/></g><g transform="matrix(1,0,0,1,1404,328.5)"><text fill="#000000" stroke="none" font-family="Open Sans" font-size="10pt" font-style="normal" font-weight="normal" text-decoration="normal" x="0" y="8.8" text-anchor="start" dominant-baseline="alphabetic">No              </text></g></g><g id="_D5D79317-2013-424F-B4DB-61A7091369DF" bpmn2nodeid="_D5D79317-2013-424F-B4DB-61A7091369DF"><g><path fill="none" stroke="#000000" paint-order="fill stroke markers" d=" M 793 278 L 858 278" stroke-miterlimit="10" stroke-dasharray=""/></g><g transform="matrix(1,0,0,1,793,278)"/><g transform="matrix(6.123233995736766e-17,1,-1,6.123233995736766e-17,873,273)"><path fill="#000000" stroke="#000000" paint-order="fill stroke markers" d=" M 10 15 L 0 15 L 5 0 Z" stroke-miterlimit="10" stroke-dasharray=""/></g><g transform="matrix(1,0,0,1,793,268)"/></g><g id="_98097F0D-FFC4-419F-8F47-121412F24060" bpmn2nodeid="_98097F0D-FFC4-419F-8F47-121412F24060"><g><path fill="none" stroke="#000000" paint-order="fill stroke markers" d=" M 1027 278 L 1092 278" stroke-miterlimit="10" stroke-dasharray=""/></g><g transform="matrix(1,0,0,1,1027,278)"/><g transform="matrix(6.123233995736766e-17,1,-1,6.123233995736766e-17,1107,273)"><path fill="#000000" stroke="#000000" paint-order="fill stroke markers" d=" M 10 15 L 0 15 L 5 0 Z" stroke-miterlimit="10" stroke-dasharray=""/></g><g transform="matrix(1,0,0,1,1027,268)"/></g></g></g></svg>